<?xml version="1.0" encoding="UTF-8" standalone="no"?>
<!DOCTYPE svg PUBLIC "-//W3C//DTD SVG 1.1//EN" "http://www.w3.org/Graphics/SVG/1.1/DTD/svg11.dtd">
<svg width="100%" height="100%" viewBox="0 0 1405 224" version="1.1" xmlns="http://www.w3.org/2000/svg" xmlns:xlink="http://www.w3.org/1999/xlink" xml:space="preserve" xmlns:serif="http://www.serif.com/" style="fill-rule:evenodd;clip-rule:evenodd;stroke-linejoin:round;stroke-miterlimit:2;">
    <g transform="matrix(1,0,0,1,-228.298569,-323.802902)">
        <g transform="matrix(1.616442,0,0,1.616442,-140.732843,-198.519446)">
            <g transform="matrix(184.278119,0,0,184.278119,222,459)">
                <path d="M0.385,0.01C0.318,0.01 0.259,-0.005 0.206,-0.033C0.153,-0.062 0.111,-0.104 0.08,-0.159C0.05,-0.215 0.034,-0.283 0.034,-0.363C0.034,-0.444 0.05,-0.513 0.081,-0.568C0.112,-0.624 0.154,-0.666 0.208,-0.695C0.261,-0.723 0.32,-0.737 0.385,-0.737C0.43,-0.737 0.472,-0.731 0.51,-0.719C0.548,-0.707 0.582,-0.689 0.611,-0.666C0.64,-0.642 0.663,-0.613 0.681,-0.579C0.699,-0.545 0.71,-0.506 0.715,-0.462L0.515,-0.462C0.513,-0.478 0.509,-0.492 0.502,-0.504C0.496,-0.517 0.487,-0.528 0.477,-0.537C0.467,-0.546 0.454,-0.553 0.44,-0.558C0.425,-0.563 0.409,-0.565 0.391,-0.565C0.358,-0.565 0.33,-0.557 0.307,-0.541C0.284,-0.525 0.267,-0.502 0.255,-0.472C0.243,-0.442 0.237,-0.406 0.237,-0.363C0.237,-0.319 0.243,-0.282 0.255,-0.252C0.267,-0.222 0.285,-0.2 0.307,-0.185C0.33,-0.17 0.357,-0.162 0.39,-0.162C0.408,-0.162 0.424,-0.165 0.438,-0.169C0.453,-0.174 0.465,-0.181 0.476,-0.19C0.487,-0.2 0.496,-0.21 0.502,-0.223C0.509,-0.236 0.513,-0.25 0.516,-0.266L0.716,-0.266C0.714,-0.235 0.705,-0.203 0.69,-0.171C0.675,-0.139 0.654,-0.109 0.627,-0.082C0.599,-0.054 0.565,-0.032 0.525,-0.015C0.485,0.001 0.438,0.01 0.385,0.01Z" style="fill-rule:nonzero;"/>
            </g>
            <g transform="matrix(184.278119,0,0,184.278119,359.758691,459)">
                <path d="M0.047,-0L0.047,-0.728L0.36,-0.728C0.414,-0.728 0.462,-0.718 0.502,-0.698C0.543,-0.678 0.574,-0.65 0.597,-0.613C0.62,-0.576 0.631,-0.532 0.631,-0.48C0.631,-0.428 0.619,-0.384 0.596,-0.349C0.573,-0.313 0.541,-0.286 0.499,-0.268C0.457,-0.249 0.409,-0.24 0.354,-0.24L0.166,-0.24L0.166,-0.394L0.313,-0.394C0.337,-0.394 0.357,-0.396 0.374,-0.402C0.39,-0.408 0.403,-0.417 0.412,-0.43C0.42,-0.443 0.425,-0.46 0.425,-0.48C0.425,-0.501 0.42,-0.518 0.412,-0.531C0.403,-0.544 0.39,-0.554 0.374,-0.56C0.357,-0.566 0.337,-0.569 0.313,-0.569L0.244,-0.569L0.244,-0L0.047,-0ZM0.44,-0L0.263,-0.334L0.473,-0.334L0.655,-0L0.44,-0Z" style="fill-rule:nonzero;"/>
            </g>
            <g transform="matrix(184.278119,0,0,184.278119,482.850716,459)">
                <path d="M0.388,0.01C0.322,0.01 0.262,-0.005 0.208,-0.033C0.155,-0.062 0.112,-0.104 0.081,-0.159C0.05,-0.215 0.034,-0.283 0.034,-0.363C0.034,-0.444 0.05,-0.513 0.081,-0.568C0.112,-0.624 0.155,-0.666 0.208,-0.695C0.262,-0.723 0.322,-0.737 0.388,-0.737C0.454,-0.737 0.514,-0.723 0.567,-0.695C0.62,-0.666 0.663,-0.624 0.694,-0.568C0.726,-0.513 0.741,-0.444 0.741,-0.363C0.741,-0.283 0.726,-0.214 0.694,-0.159C0.663,-0.103 0.62,-0.061 0.567,-0.033C0.514,-0.004 0.454,0.01 0.388,0.01ZM0.388,-0.162C0.421,-0.162 0.448,-0.17 0.47,-0.185C0.493,-0.201 0.51,-0.223 0.521,-0.253C0.532,-0.283 0.538,-0.32 0.538,-0.363C0.538,-0.407 0.532,-0.444 0.521,-0.474C0.51,-0.504 0.493,-0.527 0.47,-0.542C0.448,-0.558 0.421,-0.565 0.388,-0.565C0.355,-0.565 0.328,-0.558 0.305,-0.542C0.283,-0.527 0.266,-0.504 0.255,-0.474C0.243,-0.444 0.237,-0.407 0.237,-0.363C0.237,-0.32 0.243,-0.283 0.255,-0.253C0.266,-0.223 0.283,-0.201 0.305,-0.185C0.328,-0.17 0.355,-0.162 0.388,-0.162Z" style="fill-rule:nonzero;"/>
            </g>
            <g transform="matrix(184.278119,0,0,184.278119,625.738241,459)">
                <path d="M0.081,-0L0.081,-0.728L0.192,-0.728L0.192,-0.096L0.521,-0.096L0.521,-0L0.081,-0Z" style="fill-rule:nonzero;"/>
            </g>
            <g transform="matrix(184.278119,0,0,184.278119,729.93456,459)">
                <path d="M0.225,0.012C0.19,0.012 0.159,0.006 0.131,-0.007C0.103,-0.02 0.081,-0.039 0.065,-0.063C0.049,-0.088 0.04,-0.119 0.04,-0.154C0.04,-0.185 0.046,-0.211 0.058,-0.231C0.07,-0.25 0.086,-0.266 0.107,-0.278C0.127,-0.289 0.149,-0.298 0.174,-0.304C0.199,-0.31 0.225,-0.314 0.251,-0.317C0.283,-0.321 0.309,-0.324 0.329,-0.327C0.349,-0.329 0.364,-0.333 0.374,-0.339C0.383,-0.345 0.388,-0.354 0.388,-0.367L0.388,-0.37C0.388,-0.39 0.384,-0.407 0.376,-0.421C0.369,-0.435 0.357,-0.446 0.341,-0.454C0.326,-0.461 0.307,-0.465 0.283,-0.465C0.26,-0.465 0.24,-0.462 0.223,-0.454C0.206,-0.447 0.192,-0.438 0.181,-0.426C0.17,-0.415 0.162,-0.403 0.157,-0.391L0.056,-0.417C0.068,-0.449 0.086,-0.476 0.109,-0.496C0.132,-0.515 0.159,-0.53 0.189,-0.539C0.219,-0.548 0.25,-0.553 0.282,-0.553C0.304,-0.553 0.327,-0.55 0.352,-0.545C0.377,-0.54 0.4,-0.53 0.422,-0.517C0.443,-0.503 0.461,-0.484 0.475,-0.459C0.489,-0.434 0.496,-0.402 0.496,-0.362L0.496,-0L0.392,-0L0.392,-0.075L0.386,-0.075C0.379,-0.061 0.369,-0.047 0.355,-0.034C0.341,-0.02 0.323,-0.009 0.302,-0.001C0.28,0.008 0.255,0.012 0.225,0.012ZM0.249,-0.074C0.278,-0.074 0.303,-0.08 0.324,-0.091C0.345,-0.103 0.361,-0.118 0.372,-0.137C0.383,-0.155 0.389,-0.175 0.389,-0.197L0.389,-0.267C0.385,-0.263 0.377,-0.259 0.366,-0.256C0.355,-0.253 0.343,-0.25 0.329,-0.248C0.315,-0.245 0.302,-0.243 0.289,-0.242C0.275,-0.24 0.265,-0.239 0.256,-0.238C0.236,-0.235 0.218,-0.231 0.201,-0.224C0.184,-0.218 0.171,-0.21 0.161,-0.198C0.151,-0.187 0.146,-0.172 0.146,-0.153C0.146,-0.136 0.151,-0.121 0.159,-0.109C0.168,-0.098 0.18,-0.089 0.196,-0.083C0.211,-0.077 0.229,-0.074 0.249,-0.074Z" style="fill-rule:nonzero;"/>
            </g>
            <g transform="matrix(184.278119,0,0,184.278119,834.57713,459)">
                <path d="M0.343,0.011C0.31,0.011 0.283,0.005 0.262,-0.006C0.241,-0.017 0.225,-0.03 0.213,-0.045C0.201,-0.061 0.192,-0.074 0.186,-0.085L0.177,-0.085L0.177,-0L0.072,-0L0.072,-0.728L0.18,-0.728L0.18,-0.457L0.186,-0.457C0.192,-0.468 0.201,-0.482 0.213,-0.496C0.224,-0.511 0.24,-0.525 0.261,-0.536C0.282,-0.547 0.309,-0.553 0.343,-0.553C0.387,-0.553 0.426,-0.542 0.46,-0.52C0.495,-0.497 0.522,-0.465 0.541,-0.423C0.561,-0.381 0.571,-0.331 0.571,-0.272C0.571,-0.213 0.561,-0.162 0.542,-0.12C0.522,-0.078 0.495,-0.046 0.461,-0.023C0.427,-0 0.388,0.011 0.343,0.011ZM0.319,-0.081C0.351,-0.081 0.377,-0.089 0.398,-0.106C0.419,-0.123 0.435,-0.146 0.446,-0.175C0.456,-0.204 0.462,-0.236 0.462,-0.272C0.462,-0.308 0.456,-0.34 0.446,-0.369C0.435,-0.397 0.419,-0.42 0.398,-0.436C0.377,-0.453 0.351,-0.461 0.319,-0.461C0.289,-0.461 0.263,-0.453 0.242,-0.438C0.221,-0.422 0.205,-0.4 0.194,-0.372C0.183,-0.343 0.178,-0.31 0.178,-0.272C0.178,-0.235 0.183,-0.201 0.194,-0.172C0.205,-0.144 0.221,-0.121 0.242,-0.105C0.263,-0.089 0.289,-0.081 0.319,-0.081Z" style="fill-rule:nonzero;"/>
            </g>
            <g transform="matrix(184.278119,0,0,184.278119,948.512791,459)">
                <path d="M0.268,0.011C0.229,0.011 0.193,0.006 0.163,-0.006C0.132,-0.017 0.107,-0.034 0.087,-0.056C0.067,-0.079 0.054,-0.106 0.048,-0.138L0.149,-0.159C0.157,-0.131 0.171,-0.11 0.191,-0.096C0.211,-0.083 0.237,-0.076 0.269,-0.076C0.304,-0.076 0.331,-0.083 0.352,-0.097C0.372,-0.112 0.382,-0.129 0.382,-0.15C0.382,-0.167 0.376,-0.181 0.364,-0.193C0.351,-0.204 0.332,-0.213 0.306,-0.218L0.214,-0.239C0.163,-0.251 0.126,-0.269 0.101,-0.294C0.076,-0.319 0.064,-0.351 0.064,-0.39C0.064,-0.423 0.073,-0.451 0.091,-0.475C0.109,-0.5 0.134,-0.519 0.166,-0.532C0.197,-0.546 0.234,-0.553 0.275,-0.553C0.314,-0.553 0.348,-0.547 0.376,-0.536C0.404,-0.524 0.427,-0.508 0.444,-0.488C0.461,-0.467 0.474,-0.444 0.482,-0.417L0.385,-0.395C0.378,-0.415 0.367,-0.431 0.35,-0.446C0.333,-0.461 0.308,-0.468 0.276,-0.468C0.246,-0.468 0.221,-0.461 0.202,-0.448C0.182,-0.435 0.172,-0.417 0.172,-0.397C0.172,-0.379 0.178,-0.364 0.192,-0.353C0.205,-0.341 0.226,-0.332 0.256,-0.326L0.344,-0.306C0.395,-0.295 0.432,-0.277 0.457,-0.252C0.481,-0.228 0.493,-0.197 0.493,-0.159C0.493,-0.125 0.484,-0.096 0.465,-0.071C0.446,-0.045 0.419,-0.025 0.385,-0.01C0.352,0.004 0.313,0.011 0.268,0.011Z" style="fill-rule:nonzero;"/>
            </g>
            <g transform="matrix(184.278119,0,0,184.278119,1047.772751,459)">
            </g>
        </g>
        <g transform="matrix(1,0,0,1,-54,-369)">
            <path d="M1687,863.56L1687,899.44C1687,908.58 1679.58,916 1670.44,916L1634.56,916C1625.42,916 1618,908.58 1618,899.44L1618,863.56C1618,854.42 1625.42,847 1634.56,847L1670.44,847C1679.58,847 1687,854.42 1687,863.56Z" style="fill:rgb(255,0,0);"/>
        </g>
    </g>
</svg>
